<svg xmlns="http://www.w3.org/2000/svg" viewBox="0 0 64 64">
  <defs>
    <linearGradient id="g" x1="14" y1="10" x2="52" y2="54" gradientUnits="userSpaceOnUse">
      <stop offset="0" stop-color="#35f5a7"/>
      <stop offset="0.5" stop-color="#22d3ee"/>
      <stop offset="1" stop-color="#3b82f6"/>
    </linearGradient>
  </defs>
  <rect width="64" height="64" rx="16" fill="#050b14"/>
  <path d="M12 31c0-12 10-22 22-22 6 0 11 2 15 6" fill="none" stroke="url(#g)" stroke-width="5" stroke-linecap="round" opacity=".55"/>
  <path d="M38 15c0-2 1-3 3-4l8-2c2 0 4 1 4 3v25c0 7-5 12-12 12-5 0-9-3-9-7 0-5 5-8 10-8 2 0 4 0 6 1V21l-6 1v16c0 7-5 12-12 12-5 0-9-3-9-7 0-5 5-8 10-8 2 0 5 1 7 2V15z" fill="url(#g)"/>
  <path d="M18 49h23" stroke="#22d3ee" stroke-width="4" stroke-linecap="round" opacity=".65"/>
</svg>
